<?xml version="1.0" encoding="UTF-8" standalone="no"?>
<!-- Created with Inkscape (http://www.inkscape.org/) -->

<svg
   xmlns:dc="http://purl.org/dc/elements/1.1/"
   xmlns:cc="http://creativecommons.org/ns#"
   xmlns:rdf="http://www.w3.org/1999/02/22-rdf-syntax-ns#"
   xmlns:svg="http://www.w3.org/2000/svg"
   xmlns="http://www.w3.org/2000/svg"
   xmlns:sodipodi="http://sodipodi.sourceforge.net/DTD/sodipodi-0.dtd"
   xmlns:inkscape="http://www.inkscape.org/namespaces/inkscape"
   width="1242"
   height="2436"
   viewBox="0 0 328.61249 644.52502"
   version="1.1"
   id="svg8"
   inkscape:version="0.92.4 (5da689c313, 2019-01-14)"
   sodipodi:docname="splash.svg"
   inkscape:export-filename="D:\Dev\Personal\Apps\React\TTCLines\assets\splash.png"
   inkscape:export-xdpi="96"
   inkscape:export-ydpi="96">
  <defs
     id="defs2">
    <clipPath
       clipPathUnits="userSpaceOnUse"
       id="clipPath2404">
      <rect
         y="0.42262498"
         x="3.4226251"
         height="293.15475"
         width="293.15475"
         id="rect2406"
         style="opacity:1;fill:#ecec84;fill-opacity:1;stroke:#182080;stroke-width:4.69047594;stroke-linejoin:miter;stroke-miterlimit:4;stroke-dasharray:none;stroke-opacity:1" />
    </clipPath>
    <clipPath
       clipPathUnits="userSpaceOnUse"
       id="clipPath2404-1">
      <rect
         y="0.42262498"
         x="3.4226251"
         height="293.15475"
         width="293.15475"
         id="rect2406-9"
         style="opacity:1;fill:#ecec84;fill-opacity:1;stroke:#182080;stroke-width:4.69047594;stroke-linejoin:miter;stroke-miterlimit:4;stroke-dasharray:none;stroke-opacity:1" />
    </clipPath>
    <clipPath
       clipPathUnits="userSpaceOnUse"
       id="clipPath2404-1-1">
      <rect
         y="0.42262498"
         x="3.4226251"
         height="293.15475"
         width="293.15475"
         id="rect2406-9-8"
         style="opacity:1;fill:#ecec84;fill-opacity:1;stroke:#182080;stroke-width:4.69047594;stroke-linejoin:miter;stroke-miterlimit:4;stroke-dasharray:none;stroke-opacity:1" />
    </clipPath>
    <clipPath
       clipPathUnits="userSpaceOnUse"
       id="clipPath2404-6">
      <rect
         y="0.42262498"
         x="3.4226251"
         height="293.15475"
         width="293.15475"
         id="rect2406-0"
         style="opacity:1;fill:#ecec84;fill-opacity:1;stroke:#182080;stroke-width:4.69047594;stroke-linejoin:miter;stroke-miterlimit:4;stroke-dasharray:none;stroke-opacity:1" />
    </clipPath>
    <clipPath
       clipPathUnits="userSpaceOnUse"
       id="clipPath2404-1-6">
      <rect
         y="0.42262498"
         x="3.4226251"
         height="293.15475"
         width="293.15475"
         id="rect2406-9-7"
         style="opacity:1;fill:#ecec84;fill-opacity:1;stroke:#182080;stroke-width:4.69047594;stroke-linejoin:miter;stroke-miterlimit:4;stroke-dasharray:none;stroke-opacity:1" />
    </clipPath>
    <clipPath
       clipPathUnits="userSpaceOnUse"
       id="clipPath2404-1-6-8">
      <rect
         y="0.42262498"
         x="3.4226251"
         height="293.15475"
         width="293.15475"
         id="rect2406-9-7-0"
         style="opacity:1;fill:#ecec84;fill-opacity:1;stroke:#182080;stroke-width:4.69047594;stroke-linejoin:miter;stroke-miterlimit:4;stroke-dasharray:none;stroke-opacity:1" />
    </clipPath>
  </defs>
  <sodipodi:namedview
     id="base"
     pagecolor="#ecec84"
     bordercolor="#666666"
     borderopacity="1.0"
     inkscape:pageopacity="1"
     inkscape:pageshadow="2"
     inkscape:zoom="0.35355339"
     inkscape:cx="-115.62603"
     inkscape:cy="1242.4006"
     inkscape:document-units="mm"
     inkscape:current-layer="layer1"
     showgrid="false"
     units="px"
     inkscape:window-width="1920"
     inkscape:window-height="986"
     inkscape:window-x="-11"
     inkscape:window-y="-11"
     inkscape:window-maximized="1" />
  <metadata
     id="metadata5">
    <rdf:RDF>
      <cc:Work
         rdf:about="">
        <dc:format>image/svg+xml</dc:format>
        <dc:type
           rdf:resource="http://purl.org/dc/dcmitype/StillImage" />
        <dc:title></dc:title>
      </cc:Work>
    </rdf:RDF>
  </metadata>
  <g
     inkscape:label="Layer 1"
     inkscape:groupmode="layer"
     id="layer1"
     transform="translate(0,347.52502)">
    <path
       id="rect2315-6-2-6-3-3"
       style="opacity:0.98000004;fill:none;fill-opacity:1;stroke:#182080;stroke-width:1.25999999;stroke-linecap:square;stroke-linejoin:round;stroke-miterlimit:4;stroke-dasharray:none;stroke-opacity:0.35294118;paint-order:markers stroke fill"
       d="m 92.892879,-422.20827 h 56.696431 v 22.67857 H 92.892879 Z m 29.433911,22.69696 h 56.69642 v 22.67857 h -56.69642 z m -142.815031,-22.69696 h 56.69635 v 22.67857 h -56.69635 z m 86.15221,22.69696 h 56.696441 v 22.67857 H 65.663969 Z m -56.71836,0 h 56.69643 v 22.67857 H 8.945609 Z m 27.32526,-22.69696 h 56.69643 v 22.67857 h -56.69643 z m -84.044388,22.69696 H 8.922829 v 22.67857 h -56.696348 z m -29.393111,-22.69696 h 56.696438 v 22.67857 H -77.16663 Z m 170.059509,-45.39264 h 56.696431 v 22.67859 H 92.892879 Z m 29.433911,22.69699 h 56.69642 v 22.67859 h -56.69642 z m -142.815031,-22.69699 h 56.69635 v 22.67859 h -56.69635 z m 86.15221,22.69699 h 56.696441 v 22.67859 H 65.663969 Z m -56.71836,0 h 56.69643 v 22.67859 H 8.945609 Z m 27.32526,-22.69699 h 56.69643 v 22.67859 h -56.69643 z m -84.044388,22.69699 H 8.922829 v 22.67859 h -56.696348 z m -29.393111,-22.69699 h 56.696438 v 22.67859 H -77.16663 Z M 92.892879,-512.97057 H 149.58931 V -490.292 H 92.892879 Z m 29.433911,22.69698 h 56.69642 v 22.67857 h -56.69642 z m -142.815031,-22.69698 h 56.69635 v 22.67857 h -56.69635 z m 86.15221,22.69698 h 56.696441 v 22.67857 H 65.663969 Z m -56.71836,0 h 56.69643 v 22.67857 H 8.945609 Z m 27.32526,-22.69698 h 56.69643 v 22.67857 h -56.69643 z m -84.044388,22.69698 H 8.922829 v 22.67857 h -56.696348 z m -29.393111,-22.69698 h 56.696438 V -490.292 H -77.16663 Z m 170.059509,-45.39306 h 56.696431 v 22.67839 H 92.892879 Z m 29.433911,22.69711 h 56.69642 v 22.67857 h -56.69642 z m -142.815031,-22.69711 h 56.69635 v 22.67839 h -56.69635 z m 86.15221,22.69711 h 56.696441 v 22.67857 H 65.663969 Z m -56.71836,0 h 56.69643 v 22.67857 H 8.945609 Z m 27.32526,-22.69711 h 56.69643 v 22.67839 h -56.69643 z m -84.044388,22.69711 H 8.922829 v 22.67857 h -56.696348 z m -29.393111,-22.69711 h 56.696438 v 22.67839 H -77.16663 Z m 170.059509,-45.37035 h 56.696431 v 22.67857 H 92.892879 Z m 29.433911,22.69729 h 56.69642 v 22.67857 h -56.69642 z m -142.815031,-22.69729 h 56.69635 v 22.67857 h -56.69635 z m 86.15221,22.69729 h 56.696441 v 22.67857 H 65.663969 Z m -56.71836,0 h 56.69643 v 22.67857 H 8.945609 Z m 27.32526,-22.69729 h 56.69643 v 22.67857 h -56.69643 z m -84.044388,22.69729 H 8.922829 v 22.67857 h -56.696348 z m -29.393111,-22.69729 h 56.696438 v 22.67857 H -77.16663 Z m 396.81544,181.52571 h 56.69643 v 22.67857 h -56.69643 z m 29.43389,22.69696 h 56.69643 v 22.67857 H 349.0827 Z m -142.81502,-22.69696 h 56.69637 v 22.67857 h -56.69637 z m 86.15225,22.69696 h 56.6964 v 22.67857 h -56.6964 z m -56.71841,0 h 56.69645 v 22.67857 h -56.69645 z m 27.32529,-22.69696 h 56.6964 v 22.67857 h -56.6964 z m -84.04441,22.69696 h 56.69637 v 22.67857 H 178.9824 Z m -29.39309,-22.69696 h 56.69644 v 22.67857 h -56.69644 z m 170.0595,-45.39264 h 56.69643 v 22.67859 h -56.69643 z m 29.43389,22.69699 h 56.69643 v 22.67859 H 349.0827 Z m -142.81502,-22.69699 h 56.69637 v 22.67859 h -56.69637 z m 86.15225,22.69699 h 56.6964 v 22.67859 h -56.6964 z m -56.71841,0 h 56.69645 v 22.67859 h -56.69645 z m 27.32529,-22.69699 h 56.6964 v 22.67859 h -56.6964 z m -84.04441,22.69699 h 56.69637 v 22.67859 H 178.9824 Z m -29.39309,-22.69699 h 56.69644 v 22.67859 h -56.69644 z m 170.0595,-45.36966 h 56.69643 v 22.67857 h -56.69643 z m 29.43389,22.69698 h 56.69643 v 22.67857 H 349.0827 Z m -142.81502,-22.69698 h 56.69637 v 22.67857 h -56.69637 z m 86.15225,22.69698 h 56.6964 v 22.67857 h -56.6964 z m -56.71841,0 h 56.69645 v 22.67857 h -56.69645 z m 27.32529,-22.69698 h 56.6964 v 22.67857 h -56.6964 z m -84.04441,22.69698 h 56.69637 v 22.67857 H 178.9824 Z m -29.39309,-22.69698 h 56.69644 v 22.67857 h -56.69644 z m 170.0595,-45.39306 h 56.69643 v 22.67839 h -56.69643 z m 29.43389,22.69711 h 56.69643 v 22.67857 H 349.0827 Z m -142.81502,-22.69711 h 56.69637 v 22.67839 h -56.69637 z m 86.15225,22.69711 h 56.6964 v 22.67857 h -56.6964 z m -56.71841,0 h 56.69645 v 22.67857 h -56.69645 z m 27.32529,-22.69711 h 56.6964 v 22.67839 h -56.6964 z m -84.04441,22.69711 h 56.69637 v 22.67857 H 178.9824 Z m -29.39309,-22.69711 h 56.69644 v 22.67839 h -56.69644 z m 170.0595,-45.37035 h 56.69643 v 22.67857 h -56.69643 z m 29.43389,22.69729 h 56.69643 v 22.67857 H 349.0827 Z m -142.81502,-22.69729 h 56.69637 v 22.67857 h -56.69637 z m 86.15225,22.69729 h 56.6964 v 22.67857 h -56.6964 z m -56.71841,0 h 56.69645 v 22.67857 h -56.69645 z m 27.32529,-22.69729 h 56.6964 v 22.67857 h -56.6964 z m -84.04441,22.69729 h 56.69637 v 22.67857 H 178.9824 Z m -29.39309,-22.69729 h 56.69644 v 22.67857 H 149.58931 Z M 92.892879,-195.30703 H 149.5893 v 22.67857 H 92.892879 Z m 29.433901,22.69696 h 56.69642 v 22.67857 h -56.69642 z m -142.815029,-22.69696 h 56.696358 v 22.67857 h -56.696358 z m 86.152218,22.69696 H 122.3604 v 22.67857 H 65.663969 Z m -56.71836,0 h 56.69643 v 22.67857 H 8.945609 Z m 27.32526,-22.69696 h 56.69643 v 22.67857 h -56.69643 z m -84.044399,22.69696 H 8.922829 v 22.67857 H -47.77353 Z m -29.3931,-22.69696 h 56.696438 v 22.67857 H -77.16663 Z M 92.892879,-240.69966 H 149.5893 v 22.67857 H 92.892879 Z m 29.433901,22.69699 h 56.69642 v 22.67857 h -56.69642 z m -142.815029,-22.69699 h 56.696358 v 22.67857 h -56.696358 z m 86.152218,22.69699 H 122.3604 v 22.67857 H 65.663969 Z m -56.71836,0 h 56.69643 v 22.67857 H 8.945609 Z m 27.32526,-22.69699 h 56.69643 v 22.67857 h -56.69643 z m -84.044399,22.69699 H 8.922829 v 22.67857 H -47.77353 Z m -29.3931,-22.69699 h 56.696438 v 22.67857 H -77.16663 Z M 92.892879,-286.06933 H 149.5893 v 22.67858 H 92.892879 Z m 29.433901,22.69699 h 56.69642 v 22.67858 h -56.69642 z m -142.815029,-22.69699 h 56.696358 v 22.67858 h -56.696358 z m 86.152218,22.69699 H 122.3604 v 22.67858 H 65.663969 Z m -56.71836,0 h 56.69643 v 22.67858 H 8.945609 Z m 27.32526,-22.69699 h 56.69643 v 22.67858 h -56.69643 z m -84.044399,22.69699 H 8.922829 v 22.67858 H -47.77353 Z m -29.3931,-22.69699 h 56.696438 v 22.67858 H -77.16663 Z M 92.892879,-331.46238 H 149.5893 v 22.67839 H 92.892879 Z m 29.433901,22.69709 h 56.69642 v 22.67858 h -56.69642 z m -142.815029,-22.69709 h 56.696358 v 22.67839 h -56.696358 z m 86.152218,22.69709 H 122.3604 v 22.67858 H 65.663969 Z m -56.71836,0 h 56.69643 v 22.67858 H 8.945609 Z m 27.32526,-22.69709 h 56.69643 v 22.67839 h -56.69643 z m -84.044399,22.69709 H 8.922829 v 22.67858 H -47.77353 Z m -29.3931,-22.69709 h 56.696438 v 22.67839 H -77.16663 Z M 92.892879,-376.83274 H 149.5893 v 22.67858 H 92.892879 Z m 29.433901,22.69731 h 56.69642 v 22.67858 h -56.69642 z m -142.815029,-22.69731 h 56.696358 v 22.67858 h -56.696358 z m 86.152218,22.69731 H 122.3604 v 22.67858 H 65.663969 Z m -56.71836,0 h 56.69643 v 22.67858 H 8.945609 Z m 27.32526,-22.69731 h 56.69643 v 22.67858 h -56.69643 z m -84.044399,22.69731 H 8.922829 v 22.67858 H -47.77353 Z m -29.3931,-22.69731 h 56.696438 v 22.67858 H -77.16663 Z m 396.81544,181.52571 h 56.69643 v 22.67857 h -56.69643 z m 29.43389,22.69696 h 56.69643 v 22.67857 H 349.0827 Z m -142.81502,-22.69696 h 56.69635 v 22.67857 h -56.69635 z m 86.15223,22.69696 h 56.69642 v 22.67857 h -56.69642 z m -56.71839,0 h 56.69645 v 22.67857 h -56.69645 z m 27.32527,-22.69696 h 56.69642 v 22.67857 h -56.69642 z m -84.0444,22.69696 h 56.69638 v 22.67857 h -56.69638 z m -29.39309,-22.69696 h 56.69643 v 22.67857 H 149.5893 Z m 170.05951,-45.39263 h 56.69643 v 22.67857 h -56.69643 z m 29.43389,22.69699 h 56.69643 v 22.67857 H 349.0827 Z m -142.81502,-22.69699 h 56.69635 v 22.67857 h -56.69635 z m 86.15223,22.69699 h 56.69642 v 22.67857 h -56.69642 z m -56.71839,0 h 56.69645 v 22.67857 h -56.69645 z m 27.32527,-22.69699 h 56.69642 v 22.67857 h -56.69642 z m -84.0444,22.69699 h 56.69638 v 22.67857 h -56.69638 z m -29.39309,-22.69699 h 56.69643 v 22.67857 H 149.5893 Z m 170.05951,-45.36967 h 56.69643 v 22.67858 h -56.69643 z m 29.43389,22.69699 h 56.69643 v 22.67858 H 349.0827 Z m -142.81502,-22.69699 h 56.69635 v 22.67858 h -56.69635 z m 86.15223,22.69699 h 56.69642 v 22.67858 h -56.69642 z m -56.71839,0 h 56.69645 v 22.67858 h -56.69645 z m 27.32527,-22.69699 h 56.69642 v 22.67858 h -56.69642 z m -84.0444,22.69699 h 56.69638 v 22.67858 h -56.69638 z m -29.39309,-22.69699 h 56.69643 v 22.67858 H 149.5893 Z m 170.05951,-45.39305 h 56.69643 v 22.67839 h -56.69643 z m 29.43389,22.69709 h 56.69643 v 22.67858 H 349.0827 Z m -142.81502,-22.69709 h 56.69635 v 22.67839 h -56.69635 z m 86.15223,22.69709 h 56.69642 v 22.67858 h -56.69642 z m -56.71839,0 h 56.69645 v 22.67858 h -56.69645 z m 27.32527,-22.69709 h 56.69642 v 22.67839 h -56.69642 z m -84.0444,22.69709 h 56.69638 v 22.67858 h -56.69638 z m -29.39309,-22.69709 h 56.69643 v 22.67839 H 149.5893 Z m 170.05951,-45.37036 h 56.69643 v 22.67858 h -56.69643 z m 29.43389,22.69731 h 56.69643 v 22.67858 H 349.0827 Z m -142.81502,-22.69731 h 56.69635 v 22.67858 h -56.69635 z m 86.15223,22.69731 h 56.69642 v 22.67858 h -56.69642 z m -56.71839,0 h 56.69645 v 22.67858 h -56.69645 z m 27.32527,-22.69731 h 56.69642 v 22.67858 h -56.69642 z m -84.0444,22.69731 h 56.69638 v 22.67858 h -56.69638 z m -29.39309,-22.69731 h 56.69643 v 22.67858 H 149.5893 Z M 92.89287,31.596263 h 56.69644 v 22.67857 H 92.89287 Z m 29.43391,22.69697 h 56.69643 v 22.67857 H 122.32678 Z M -20.48825,31.596263 H 36.2081 v 22.67857 h -56.69635 z m 86.15221,22.69697 h 56.69644 v 22.67857 H 65.66396 Z m -56.71836,0 h 56.69643 v 22.67857 H 8.9456 Z m 27.32526,-22.69697 h 56.69643 v 22.67857 H 36.27086 Z m -84.04439,22.69697 H 8.92282 v 22.67857 h -56.69635 z m -29.3931,-22.69697 h 56.69643 v 22.67857 h -56.69643 z m 170.0595,-45.392629 h 56.69644 V 8.8822139 H 92.89287 Z m 29.43391,22.6969899 h 56.69643 V 31.579203 H 122.32678 Z M -20.48825,-13.796366 H 36.2081 V 8.8822139 H -20.48825 Z M 65.66396,8.9006239 H 122.3604 V 31.579203 H 65.66396 Z m -56.71836,0 H 65.64203 V 31.579203 H 8.9456 Z M 36.27086,-13.796366 H 92.96729 V 8.8822139 H 36.27086 Z M -47.77353,8.9006239 H 8.92282 V 31.579203 H -47.77353 Z M -77.16663,-13.796366 H -20.4702 V 8.8822139 h -56.69643 z m 170.0595,-45.369661 h 56.69644 v 22.67857 H 92.89287 Z m 29.43391,22.69698 h 56.69643 v 22.678571 H 122.32678 Z M -20.48825,-59.166027 H 36.2081 v 22.67857 h -56.69635 z m 86.15221,22.69698 h 56.69644 v 22.678571 H 65.66396 Z m -56.71836,0 h 56.69643 v 22.678571 H 8.9456 Z m 27.32526,-22.69698 h 56.69643 v 22.67857 H 36.27086 Z m -84.04439,22.69698 H 8.92282 v 22.678571 h -56.69635 z m -29.3931,-22.69698 h 56.69643 v 22.67857 h -56.69643 z m 170.0595,-45.393083 h 56.69644 v 22.678413 H 92.89287 Z m 29.43391,22.697133 h 56.69643 v 22.67857 H 122.32678 Z M -20.48825,-104.55911 H 36.2081 v 22.678413 h -56.69635 z m 86.15221,22.697133 h 56.69644 v 22.67857 H 65.66396 Z m -56.71836,0 h 56.69643 v 22.67857 H 8.9456 Z m 27.32526,-22.697133 h 56.69643 v 22.678413 H 36.27086 Z m -84.04439,22.697133 H 8.92282 v 22.67857 h -56.69635 z m -29.3931,-22.697133 h 56.69643 v 22.678413 h -56.69643 z m 170.0595,-45.37036 h 56.69644 v 22.67857 H 92.89287 Z m 29.43391,22.69729 h 56.69643 v 22.67858 H 122.32678 Z M -20.48825,-149.92947 H 36.2081 v 22.67857 h -56.69635 z m 86.15221,22.69729 h 56.69644 v 22.67858 H 65.66396 Z m -56.71836,0 h 56.69643 v 22.67858 H 8.9456 Z m 27.32526,-22.69729 h 56.69643 v 22.67857 H 36.27086 Z m -84.04439,22.69729 H 8.92282 v 22.67858 h -56.69635 z m -29.3931,-22.69729 h 56.69643 v 22.67857 H -77.16663 Z M 319.64881,31.596263 h 56.69643 v 22.67857 h -56.69643 z m 29.43389,22.69697 h 56.69643 v 22.67857 H 349.0827 Z M 206.26769,31.596263 h 56.69635 v 22.67857 h -56.69635 z m 86.15223,22.69697 h 56.69641 v 22.67857 h -56.69641 z m -56.71839,0 h 56.69645 v 22.67857 h -56.69645 z m 27.32527,-22.69697 h 56.69641 v 22.67857 H 263.0268 Z m -84.0444,22.69697 h 56.69635 v 22.67857 H 178.9824 Z m -29.39309,-22.69697 h 56.69643 v 22.67857 h -56.69643 z m 170.0595,-45.392629 h 56.69643 V 8.8822139 H 319.64881 Z M 349.0827,8.9006239 h 56.69643 V 31.579203 H 349.0827 Z M 206.26769,-13.796366 h 56.69635 V 8.8822139 h -56.69635 z m 86.15223,22.6969899 h 56.69641 V 31.579203 h -56.69641 z m -56.71839,0 h 56.69645 V 31.579203 H 235.70153 Z M 263.0268,-13.796366 h 56.69641 V 8.8822139 H 263.0268 Z M 178.9824,8.9006239 h 56.69635 V 31.579203 H 178.9824 Z M 149.58931,-13.796366 h 56.69643 V 8.8822139 h -56.69643 z m 170.0595,-45.369661 h 56.69643 v 22.67857 h -56.69643 z m 29.43389,22.69698 h 56.69643 v 22.678571 H 349.0827 Z m -142.81501,-22.69698 h 56.69635 v 22.67857 h -56.69635 z m 86.15223,22.69698 h 56.69641 v 22.678571 h -56.69641 z m -56.71839,0 h 56.69645 v 22.678571 h -56.69645 z m 27.32527,-22.69698 h 56.69641 v 22.67857 H 263.0268 Z m -84.0444,22.69698 h 56.69635 v 22.678571 H 178.9824 Z m -29.39309,-22.69698 h 56.69643 v 22.67857 h -56.69643 z m 170.0595,-45.393083 h 56.69643 v 22.678413 h -56.69643 z m 29.43389,22.697133 h 56.69643 v 22.67857 H 349.0827 Z M 206.26769,-104.55911 h 56.69635 v 22.678413 h -56.69635 z m 86.15223,22.697133 h 56.69641 v 22.67857 h -56.69641 z m -56.71839,0 h 56.69645 v 22.67857 h -56.69645 z m 27.32527,-22.697133 h 56.69641 v 22.678413 H 263.0268 Z m -84.0444,22.697133 h 56.69635 v 22.67857 H 178.9824 Z m -29.39309,-22.697133 h 56.69643 v 22.678413 h -56.69643 z m 170.0595,-45.37036 h 56.69643 v 22.67857 h -56.69643 z m 29.43389,22.69729 h 56.69643 v 22.67858 H 349.0827 Z m -142.81501,-22.69729 h 56.69635 v 22.67857 h -56.69635 z m 86.15223,22.69729 h 56.69641 v 22.67858 h -56.69641 z m -56.71839,0 h 56.69645 v 22.67858 h -56.69645 z m 27.32527,-22.69729 h 56.69641 v 22.67857 H 263.0268 Z m -84.0444,22.69729 h 56.69635 v 22.67858 H 178.9824 Z m -29.39309,-22.69729 h 56.69643 v 22.67857 H 149.58931 Z M 92.892869,258.49747 H 149.5893 v 22.67857 H 92.892869 Z m 29.433901,22.69697 h 56.69643 v 22.67857 H 122.32677 Z M -20.48826,258.49747 h 56.696359 v 22.67857 H -20.48826 Z m 86.152219,22.69697 h 56.696431 v 22.67857 H 65.663959 Z m -56.7183595,0 H 65.642029 v 22.67857 H 8.9455995 Z M 36.270859,258.49747 h 56.69643 v 22.67857 H 36.270859 Z M -47.77354,281.19444 H 8.9228195 v 22.67857 H -47.77354 Z m -29.39309,-22.69697 h 56.69643 v 22.67857 H -77.16663 Z M 92.892869,213.10484 H 149.5893 v 22.67858 H 92.892869 Z m 29.433901,22.69699 h 56.69643 v 22.67858 H 122.32677 Z M -20.48826,213.10484 h 56.696359 v 22.67858 H -20.48826 Z m 86.152219,22.69699 h 56.696431 v 22.67858 H 65.663959 Z m -56.7183595,0 H 65.642029 v 22.67858 H 8.9455995 Z M 36.270859,213.10484 h 56.69643 v 22.67858 H 36.270859 Z M -47.77354,235.80183 H 8.9228195 v 22.67858 H -47.77354 Z m -29.39309,-22.69699 h 56.69643 v 22.67858 H -77.16663 Z M 92.892869,167.73518 H 149.5893 v 22.67857 H 92.892869 Z m 29.433901,22.69698 h 56.69643 v 22.67857 H 122.32677 Z M -20.48826,167.73518 h 56.696359 v 22.67857 H -20.48826 Z m 86.152219,22.69698 h 56.696431 v 22.67857 H 65.663959 Z m -56.7183595,0 H 65.642029 v 22.67857 H 8.9455995 Z M 36.270859,167.73518 h 56.69643 v 22.67857 H 36.270859 Z M -47.77354,190.43216 H 8.9228195 v 22.67857 H -47.77354 Z m -29.39309,-22.69698 h 56.69643 v 22.67857 H -77.16663 Z M 92.892869,122.34212 H 149.5893 v 22.67839 H 92.892869 Z m 29.433901,22.69711 H 179.0232 V 167.7178 H 122.32677 Z M -20.48826,122.34212 h 56.696359 v 22.67839 H -20.48826 Z m 86.152219,22.69711 H 122.36039 V 167.7178 H 65.663959 Z m -56.7183595,0 H 65.642029 V 167.7178 H 8.9455995 Z M 36.270859,122.34212 h 56.69643 v 22.67839 H 36.270859 Z M -47.77354,145.03923 H 8.9228195 V 167.7178 H -47.77354 Z m -29.39309,-22.69711 h 56.69643 v 22.67839 H -77.16663 Z M 92.892869,76.971803 H 149.5893 v 22.67854 H 92.892869 Z m 29.433901,22.69727 H 179.0232 V 122.34764 H 122.32677 Z M -20.48826,76.971803 h 56.696359 v 22.67854 H -20.48826 Z m 86.152219,22.69727 H 122.36039 V 122.34764 H 65.663959 Z m -56.7183595,0 H 65.642029 V 122.34764 H 8.9455995 Z M 36.270859,76.971803 h 56.69643 v 22.67854 H 36.270859 Z M -47.77354,99.669073 H 8.9228195 V 122.34764 H -47.77354 Z m -29.39309,-22.69727 h 56.69643 v 22.67854 H -77.16663 Z M 319.6488,258.49747 h 56.69643 v 22.67857 H 319.6488 Z m 29.4339,22.69697 h 56.69643 v 22.67857 H 349.0827 Z M 206.26767,258.49747 h 56.69636 v 22.67857 h -56.69636 z m 86.15222,22.69697 h 56.69643 v 22.67857 h -56.69643 z m -56.71836,0 h 56.69643 v 22.67857 h -56.69643 z m 27.32526,-22.69697 h 56.69643 v 22.67857 h -56.69643 z m -84.0444,22.69697 h 56.69636 v 22.67857 H 178.98239 Z M 149.5893,258.49747 h 56.69643 v 22.67857 H 149.5893 Z m 170.0595,-45.39263 h 56.69643 v 22.67858 H 319.6488 Z m 29.4339,22.69699 h 56.69643 v 22.67858 H 349.0827 Z M 206.26767,213.10484 h 56.69636 v 22.67858 h -56.69636 z m 86.15222,22.69699 h 56.69643 v 22.67858 h -56.69643 z m -56.71836,0 h 56.69643 v 22.67858 h -56.69643 z m 27.32526,-22.69699 h 56.69643 v 22.67858 h -56.69643 z m -84.0444,22.69699 h 56.69636 v 22.67858 H 178.98239 Z M 149.5893,213.10484 h 56.69643 v 22.67858 H 149.5893 Z m 170.0595,-45.36966 h 56.69643 v 22.67857 H 319.6488 Z m 29.4339,22.69698 h 56.69643 v 22.67857 H 349.0827 Z M 206.26767,167.73518 h 56.69636 v 22.67857 h -56.69636 z m 86.15222,22.69698 h 56.69643 v 22.67857 h -56.69643 z m -56.71836,0 h 56.69643 v 22.67857 h -56.69643 z m 27.32526,-22.69698 h 56.69643 v 22.67857 h -56.69643 z m -84.0444,22.69698 h 56.69636 v 22.67857 H 178.98239 Z M 149.5893,167.73518 h 56.69643 v 22.67857 H 149.5893 Z m 170.0595,-45.39306 h 56.69643 v 22.67839 H 319.6488 Z m 29.4339,22.69711 h 56.69643 V 167.7178 H 349.0827 Z M 206.26767,122.34212 h 56.69636 v 22.67839 h -56.69636 z m 86.15222,22.69711 h 56.69643 v 22.67857 h -56.69643 z m -56.71836,0 h 56.69643 v 22.67857 h -56.69643 z m 27.32526,-22.69711 h 56.69643 v 22.67839 h -56.69643 z m -84.0444,22.69711 h 56.69636 V 167.7178 H 178.98239 Z M 149.5893,122.34212 h 56.69643 v 22.67839 H 149.5893 Z M 319.6488,76.971803 h 56.69643 v 22.67854 H 319.6488 Z m 29.4339,22.69727 h 56.69643 V 122.34764 H 349.0827 Z M 206.26767,76.971803 h 56.69636 v 22.67854 h -56.69636 z m 86.15222,22.69727 h 56.69643 v 22.678567 h -56.69643 z m -56.71836,0 h 56.69643 v 22.678567 h -56.69643 z m 27.32526,-22.69727 h 56.69643 v 22.67854 h -56.69643 z m -84.0444,22.69727 h 56.69636 V 122.34764 H 178.98239 Z M 149.5893,76.971803 h 56.69643 v 22.67854 H 149.5893 Z"
       inkscape:connector-curvature="0" />
  </g>
</svg>
