<?xml version="1.0" encoding="UTF-8" standalone="no"?>
<!-- Created with Inkscape (http://www.inkscape.org/) -->

<svg
   xmlns:dc="http://purl.org/dc/elements/1.1/"
   xmlns:cc="http://creativecommons.org/ns#"
   xmlns:rdf="http://www.w3.org/1999/02/22-rdf-syntax-ns#"
   xmlns:svg="http://www.w3.org/2000/svg"
   xmlns="http://www.w3.org/2000/svg"
   xmlns:sodipodi="http://sodipodi.sourceforge.net/DTD/sodipodi-0.dtd"
   xmlns:inkscape="http://www.inkscape.org/namespaces/inkscape"
   width="1024"
   height="500"
   viewBox="0 0 270.93333 132.29167"
   version="1.1"
   id="svg900"
   inkscape:version="0.92.4 (5da689c313, 2019-01-14)"
   sodipodi:docname="feature.svg">
  <defs
     id="defs894" />
  <sodipodi:namedview
     id="base"
     pagecolor="#ecec84"
     bordercolor="#666666"
     borderopacity="1.0"
     inkscape:pageopacity="1"
     inkscape:pageshadow="2"
     inkscape:zoom="0.35"
     inkscape:cx="-155.71429"
     inkscape:cy="674.28571"
     inkscape:document-units="mm"
     inkscape:current-layer="layer1"
     showgrid="false"
     units="px"
     inkscape:window-width="1920"
     inkscape:window-height="986"
     inkscape:window-x="-11"
     inkscape:window-y="-11"
     inkscape:window-maximized="1" />
  <metadata
     id="metadata897">
    <rdf:RDF>
      <cc:Work
         rdf:about="">
        <dc:format>image/svg+xml</dc:format>
        <dc:type
           rdf:resource="http://purl.org/dc/dcmitype/StillImage" />
        <dc:title></dc:title>
      </cc:Work>
    </rdf:RDF>
  </metadata>
  <g
     inkscape:label="Layer 1"
     inkscape:groupmode="layer"
     id="layer1"
     transform="translate(0,-164.70832)">
    <path
       id="rect2315-3-4-7"
       style="opacity:0.98000004;fill:none;fill-opacity:1;stroke:#182080;stroke-width:0.79579508;stroke-linecap:square;stroke-linejoin:round;stroke-miterlimit:4;stroke-dasharray:none;stroke-opacity:0.35294118;paint-order:markers stroke fill"
       d="M 87.777151,115.14275 H 123.58566 V 100.81934 H 87.777151 Z M 142.18948,100.80728 H 177.998 V 86.483865 h -35.80852 z m -35.82238,0 h 35.80853 V 86.483865 H 106.3671 Z m 17.25818,14.33547 h 35.80851 v -14.32341 h -35.80851 z m -107.457779,0 h 35.80848 v -14.32341 h -35.80848 z m 54.41231,-14.33547 H 106.38834 V 86.483865 H 70.579811 Z m -35.82237,0 h 35.80853 V 86.483865 h -35.80853 z m 17.25818,14.33547 h 35.80852 v -14.32341 h -35.80852 z m -107.493408,0 h 35.808531 V 100.81934 H -55.477787 Z M -1.065424,100.80728 H 34.743051 V 86.483865 H -1.065424 Z m -35.822375,0 H -1.079268 V 86.483865 h -35.808531 z m 17.258187,14.33547 H 16.178911 V 100.81934 H -19.629612 Z M 87.777151,143.7976 H 123.58566 V 129.4742 H 87.777151 Z M 142.18948,129.46257 H 177.998 v -14.3234 h -35.80852 z m -35.82238,0 h 35.80853 v -14.3234 H 106.3671 Z m 17.25818,14.33503 h 35.80851 v -14.3234 h -35.80851 z m -107.457779,0 h 35.80848 v -14.3234 h -35.80848 z m 54.41231,-14.33503 h 35.808529 v -14.3234 H 70.579811 Z m -35.82237,0 h 35.80853 v -14.3234 h -35.80853 z m 17.25818,14.33503 h 35.80852 v -14.3234 h -35.80852 z m -107.493408,0 h 35.808531 v -14.3234 h -35.808531 z m 54.412363,-14.33503 h 35.808475 v -14.3234 H -1.065424 Z m -35.822375,0 h 35.808531 v -14.3234 h -35.808531 z m 17.258187,14.33503 H 16.178911 V 129.4742 H -19.629612 Z M 87.777151,172.46684 H 123.58566 V 158.14342 H 87.777151 Z M 142.18948,158.13179 H 177.998 v -14.32341 h -35.80852 z m -35.82238,0 h 35.80853 V 143.80838 H 106.3671 Z m 17.25818,14.33505 h 35.80851 v -14.32342 h -35.80851 z m -107.457779,0 h 35.80848 v -14.32342 h -35.80848 z m 54.41231,-14.33505 H 106.38834 V 143.80838 H 70.579811 Z m -35.82237,0 h 35.80853 v -14.32341 h -35.80853 z m 17.25818,14.33505 h 35.80852 v -14.32342 h -35.80852 z m -107.493408,0 h 35.808531 V 158.14342 H -55.477787 Z M -1.065424,158.13179 H 34.743051 V 143.80838 H -1.065424 Z m -35.822375,0 h 35.808531 v -14.32341 h -35.808531 z m 17.258187,14.33505 h 35.808523 v -14.32342 h -35.808523 z m 107.406763,28.65462 h 35.808509 v -14.3234 H 87.777151 Z M 142.18948,186.78643 H 177.998 v -14.32331 h -35.80852 z m -35.82238,0 h 35.80853 V 172.46312 H 106.3671 Z m 17.25818,14.33503 h 35.80851 v -14.3234 h -35.80851 z m -107.457779,0 h 35.80848 v -14.3234 h -35.80848 z m 54.41231,-14.33503 H 106.38834 V 172.46312 H 70.579811 Z m -35.82237,0 h 35.80853 v -14.32331 h -35.80853 z m 17.25818,14.33503 h 35.80852 v -14.3234 h -35.80852 z m -107.493408,0 h 35.808531 v -14.3234 H -55.477787 Z M -1.065424,186.78643 H 34.743051 V 172.46312 H -1.065424 Z m -35.822375,0 h 35.808531 v -14.32331 h -35.808531 z m 17.258187,14.33503 h 35.808523 v -14.3234 h -35.808523 z m 107.406763,28.66951 h 35.808509 v -14.3233 H 87.777151 Z M 142.18948,215.45585 H 177.998 v -14.32341 h -35.80852 z m -35.82238,0 h 35.80853 V 201.13244 H 106.3671 Z m 17.25818,14.33512 h 35.80851 v -14.3233 h -35.80851 z m -107.457779,0 h 35.80848 v -14.3233 h -35.80848 z m 54.41231,-14.33512 H 106.38834 V 201.13244 H 70.579811 Z m -35.82237,0 h 35.80853 v -14.32341 h -35.80853 z m 17.25818,14.33512 h 35.80852 v -14.3233 h -35.80852 z m -107.493408,0 h 35.808531 v -14.3233 H -55.477787 Z M -1.065424,215.45585 H 34.743051 V 201.13244 H -1.065424 Z m -35.822375,0 h 35.808531 v -14.32341 h -35.808531 z m 17.258187,14.33512 h 35.808523 v -14.3233 H -19.629612 Z M 87.777151,258.44614 H 123.58566 V 244.12272 H 87.777151 Z M 142.18948,244.1109 H 177.998 v -14.32341 h -35.80852 z m -35.82238,0 h 35.80853 V 229.78749 H 106.3671 Z m 17.25818,14.33524 h 35.80851 v -14.32342 h -35.80851 z m -107.457779,0 h 35.80848 V 244.12272 H 16.167501 Z M 70.579811,244.1109 H 106.38834 V 229.78749 H 70.579811 Z m -35.82237,0 h 35.80853 v -14.32341 h -35.80853 z m 17.25818,14.33524 h 35.80852 v -14.32342 h -35.80852 z m -107.493408,0 h 35.808531 V 244.12272 H -55.477787 Z M -1.065424,244.1109 H 34.743051 V 229.78749 H -1.065424 Z m -35.822375,0 h 35.808531 v -14.32341 h -35.808531 z m 17.258187,14.33524 H 16.178911 V 244.12272 H -19.629612 Z M 266.84058,115.14275 h 35.80851 v -14.32341 h -35.80851 z m 54.41235,-14.33547 h 35.80853 V 86.483865 h -35.80853 z m -35.82238,0 h 35.80852 V 86.483865 h -35.80852 z m 17.25817,14.33547 h 35.80852 v -14.32341 h -35.80852 z m -107.45778,0 h 35.80848 v -14.32341 h -35.80848 z m 54.41231,-14.33547 h 35.80852 V 86.483865 h -35.80852 z m -35.82238,0 H 249.6294 V 86.483865 h -35.80853 z m 17.25819,14.33547 h 35.80852 v -14.32341 h -35.80852 z m -107.4934,0 h 35.80851 V 100.81934 H 123.58566 Z M 177.998,100.80728 h 35.80849 V 86.483865 H 177.998 Z m -35.82236,0 h 35.80852 V 86.483865 h -35.80852 z m 17.25817,14.33547 h 35.80854 v -14.32341 h -35.80854 z m 107.40677,28.65485 h 35.80851 v -14.3234 h -35.80851 z m 54.41235,-14.33503 h 35.80853 v -14.3234 h -35.80853 z m -35.82238,0 h 35.80852 v -14.3234 h -35.80852 z m 17.25817,14.33503 h 35.80852 v -14.3234 h -35.80852 z m -107.45778,0 h 35.80848 v -14.3234 h -35.80848 z m 54.41231,-14.33503 h 35.80852 v -14.3234 h -35.80852 z m -35.82238,0 h 35.80853 v -14.3234 h -35.80853 z m 17.25819,14.33503 h 35.80852 v -14.3234 h -35.80852 z m -107.4934,0 h 35.80851 V 129.4742 H 123.58566 Z M 177.998,129.46257 h 35.80849 v -14.3234 H 177.998 Z m -35.82236,0 h 35.80852 v -14.3234 h -35.80852 z m 17.25817,14.33503 h 35.80854 v -14.3234 h -35.80854 z m 107.40677,28.66924 h 35.80851 v -14.32342 h -35.80851 z m 54.41235,-14.33505 h 35.80853 v -14.32341 h -35.80853 z m -35.82238,0 h 35.80852 v -14.32341 h -35.80852 z m 17.25817,14.33505 h 35.80852 v -14.32342 h -35.80852 z m -107.45778,0 h 35.80848 v -14.32342 h -35.80848 z m 54.41231,-14.33505 h 35.80852 v -14.32341 h -35.80852 z m -35.82238,0 h 35.80853 v -14.32341 h -35.80853 z m 17.25819,14.33505 h 35.80852 v -14.32342 h -35.80852 z m -107.4934,0 h 35.80851 V 158.14342 H 123.58566 Z M 177.998,158.13179 h 35.80849 V 143.80838 H 177.998 Z m -35.82236,0 h 35.80852 v -14.32341 h -35.80852 z m 17.25817,14.33505 h 35.80854 v -14.32342 h -35.80854 z m 107.40677,28.65462 h 35.80851 v -14.3234 h -35.80851 z m 54.41235,-14.33503 h 35.80853 v -14.32331 h -35.80853 z m -35.82238,0 h 35.80852 v -14.32331 h -35.80852 z m 17.25817,14.33503 h 35.80852 v -14.3234 h -35.80852 z m -107.45778,0 h 35.80848 v -14.3234 h -35.80848 z m 54.41231,-14.33503 h 35.80852 v -14.32331 h -35.80852 z m -35.82238,0 h 35.80853 v -14.32331 h -35.80853 z m 17.25819,14.33503 h 35.80852 v -14.3234 h -35.80852 z m -107.4934,0 h 35.80851 v -14.3234 H 123.58566 Z M 177.998,186.78643 h 35.80849 V 172.46312 H 177.998 Z m -35.82236,0 h 35.80852 v -14.32331 h -35.80852 z m 17.25817,14.33503 h 35.80854 v -14.3234 h -35.80854 z m 107.40677,28.66951 h 35.80851 v -14.3233 h -35.80851 z m 54.41235,-14.33512 h 35.80853 v -14.32341 h -35.80853 z m -35.82238,0 h 35.80852 v -14.32341 h -35.80852 z m 17.25817,14.33512 h 35.80852 v -14.3233 h -35.80852 z m -107.45778,0 h 35.80848 v -14.3233 h -35.80848 z m 54.41231,-14.33512 h 35.80852 v -14.32341 h -35.80852 z m -35.82238,0 h 35.80853 v -14.32341 h -35.80853 z m 17.25819,14.33512 h 35.80852 v -14.3233 h -35.80852 z m -107.4934,0 h 35.80851 v -14.3233 H 123.58566 Z M 177.998,215.45585 h 35.80849 V 201.13244 H 177.998 Z m -35.82236,0 h 35.80852 v -14.32341 h -35.80852 z m 17.25817,14.33512 h 35.80854 v -14.3233 h -35.80854 z m 107.40677,28.65517 h 35.80851 v -14.32342 h -35.80851 z m 54.41235,-14.33524 h 35.80853 v -14.32341 h -35.80853 z m -35.82238,0 h 35.80852 v -14.32341 h -35.80852 z m 17.25817,14.33524 h 35.80852 v -14.32342 h -35.80852 z m -107.45778,0 h 35.80848 v -14.32342 h -35.80848 z m 54.41231,-14.33524 h 35.80852 v -14.32341 h -35.80852 z m -35.82238,0 h 35.80853 v -14.32341 h -35.80853 z m 17.25819,14.33524 h 35.80852 v -14.32342 h -35.80852 z m -107.4934,0 h 35.80851 V 244.12272 H 123.58566 Z M 177.998,244.1109 h 35.80849 V 229.78749 H 177.998 Z m -35.82236,0 h 35.80852 v -14.32341 h -35.80852 z m 17.25817,14.33524 h 35.80854 V 244.12272 H 159.43381 Z M 87.777151,287.1056 H 123.58567 V 272.78219 H 87.777151 Z m 54.412339,-14.33546 h 35.80853 v -14.32341 h -35.80853 z m -35.82238,0 h 35.80852 v -14.32341 h -35.80852 z m 17.25817,14.33546 h 35.80851 v -14.32341 h -35.80851 z m -107.457769,0 h 35.80848 v -14.32341 h -35.80848 z m 54.41231,-14.33546 H 106.38834 V 258.44673 H 70.579821 Z m -35.82238,0 h 35.80853 v -14.32341 h -35.80853 z m 17.25818,14.33546 h 35.80853 v -14.32341 h -35.80853 z m -107.493401,0 h 35.80853 V 272.78219 H -55.47778 Z M -1.065424,272.77014 H 34.743061 V 258.44673 H -1.065424 Z m -35.822368,0 h 35.808524 v -14.32341 h -35.808524 z m 17.25818,14.33546 H 16.178911 V 272.78219 H -19.629612 Z M 87.777151,315.76046 H 123.58567 V 301.43705 H 87.777151 Z m 54.412339,-14.33504 h 35.80853 v -14.32339 h -35.80853 z m -35.82238,0 h 35.80852 v -14.32339 h -35.80852 z m 17.25817,14.33504 h 35.80851 v -14.32341 h -35.80851 z m -107.457769,0 h 35.80848 v -14.32341 h -35.80848 z m 54.41231,-14.33504 H 106.38834 V 287.10203 H 70.579821 Z m -35.82238,0 h 35.80853 v -14.32339 h -35.80853 z m 17.25818,14.33504 h 35.80853 v -14.32341 h -35.80853 z m -107.493401,0 h 35.80853 V 301.43705 H -55.47778 Z M -1.065424,301.42542 H 34.743061 V 287.10203 H -1.065424 Z m -35.822368,0 h 35.808524 v -14.32339 h -35.808524 z m 17.25818,14.33504 H 16.178911 V 301.43705 H -19.629612 Z M 87.777151,344.4297 H 123.58567 V 330.10626 H 87.777151 Z m 54.412339,-14.33505 h 35.80853 v -14.32343 h -35.80853 z m -35.82238,0 h 35.80852 v -14.32343 h -35.80852 z m 17.25817,14.33505 h 35.80851 v -14.32344 h -35.80851 z m -107.457769,0 h 35.80848 v -14.32344 h -35.80848 z m 54.41231,-14.33505 H 106.38834 V 315.77122 H 70.579821 Z m -35.82238,0 h 35.80853 v -14.32343 h -35.80853 z m 17.25818,14.33505 h 35.80853 v -14.32344 h -35.80853 z m -107.493401,0 h 35.80853 V 330.10626 H -55.47778 Z M -1.065424,330.09465 H 34.743061 V 315.77122 H -1.065424 Z m -35.822368,0 h 35.808524 v -14.32343 h -35.808524 z m 17.25818,14.33505 h 35.808523 v -14.32344 h -35.808523 z m 107.406763,28.65461 h 35.808519 v -14.3234 H 87.777151 Z m 54.412339,-14.33503 h 35.80853 v -14.32331 h -35.80853 z m -35.82238,0 h 35.80852 v -14.32331 h -35.80852 z m 17.25817,14.33503 h 35.80851 v -14.3234 h -35.80851 z m -107.457769,0 h 35.80848 v -14.3234 h -35.80848 z m 54.41231,-14.33503 H 106.38834 V 344.42597 H 70.579821 Z m -35.82238,0 h 35.80853 v -14.32331 h -35.80853 z m 17.25818,14.33503 h 35.80853 v -14.3234 h -35.80853 z m -107.493401,0 h 35.80853 v -14.3234 H -55.47778 Z M -1.065424,358.74928 H 34.743061 V 344.42597 H -1.065424 Z m -35.822368,0 h 35.808524 v -14.32331 h -35.808524 z m 17.25818,14.33503 h 35.808523 v -14.3234 H -19.629612 Z M 87.777151,401.75382 H 123.58567 V 387.43053 H 87.777151 Z m 54.412339,-14.33513 h 35.80853 v -14.32341 h -35.80853 z m -35.82238,0 h 35.80852 v -14.32341 h -35.80852 z m 17.25817,14.33513 h 35.80851 v -14.32329 h -35.80851 z m -107.457769,0 h 35.80848 v -14.32329 h -35.80848 z m 54.41231,-14.33513 H 106.38834 V 373.09528 H 70.579821 Z m -35.82238,0 h 35.80853 v -14.32341 h -35.80853 z m 17.25818,14.33513 h 35.80853 v -14.32329 h -35.80853 z m -107.493401,0 h 35.80853 V 387.43053 H -55.47778 Z M -1.065424,387.41869 H 34.743061 V 373.09528 H -1.065424 Z m -35.822368,0 h 35.808524 v -14.32341 h -35.808524 z m 17.25818,14.33513 H 16.178911 V 387.43053 H -19.629612 Z M 87.777151,430.40896 H 123.58567 V 416.08557 H 87.777151 Z m 54.412339,-14.33522 h 35.80853 v -14.32341 h -35.80853 z m -35.82238,0 h 35.80852 v -14.32341 h -35.80852 z m 17.25817,14.33522 h 35.80851 v -14.32339 h -35.80851 z m -107.457769,0 h 35.80848 v -14.32339 h -35.80848 z m 54.41231,-14.33522 H 106.38834 V 401.75033 H 70.579821 Z m -35.82238,0 h 35.80853 v -14.32341 h -35.80853 z m 17.25818,14.33522 h 35.80853 v -14.32339 h -35.80853 z m -107.493401,0 h 35.80853 V 416.08557 H -55.47778 Z M -1.065424,416.07374 H 34.743061 V 401.75033 H -1.065424 Z m -35.822368,0 h 35.808524 v -14.32341 h -35.808524 z m 17.25818,14.33522 H 16.178911 V 416.08557 H -19.629612 Z M 266.84059,287.1056 h 35.80852 v -14.32341 h -35.80852 z m 54.41235,-14.33546 h 35.80852 v -14.32341 h -35.80852 z m -35.82239,0 h 35.80852 v -14.32341 h -35.80852 z m 17.25817,14.33546 h 35.80854 v -14.32341 h -35.80854 z m -107.45777,0 h 35.80847 v -14.32341 h -35.80847 z m 54.4123,-14.33546 h 35.80853 v -14.32341 h -35.80853 z m -35.82238,0 h 35.80855 v -14.32341 h -35.80855 z m 17.25819,14.33546 h 35.80852 v -14.32341 h -35.80852 z m -107.49339,0 h 35.80852 v -14.32341 h -35.80852 z m 54.41235,-14.33546 h 35.80847 v -14.32341 h -35.80847 z m -35.82238,0 h 35.80852 v -14.32341 h -35.80852 z m 17.25819,14.33546 h 35.80852 v -14.32341 h -35.80852 z m 107.40676,28.65486 h 35.80852 v -14.32341 h -35.80852 z m 54.41235,-14.33504 h 35.80852 v -14.32339 h -35.80852 z m -35.82239,0 h 35.80852 v -14.32339 h -35.80852 z m 17.25817,14.33504 h 35.80854 v -14.32341 h -35.80854 z m -107.45777,0 h 35.80847 v -14.32341 h -35.80847 z m 54.4123,-14.33504 h 35.80853 v -14.32339 h -35.80853 z m -35.82238,0 h 35.80855 v -14.32339 h -35.80855 z m 17.25819,14.33504 h 35.80852 v -14.32341 h -35.80852 z m -107.49339,0 h 35.80852 v -14.32341 h -35.80852 z m 54.41235,-14.33504 h 35.80847 v -14.32339 h -35.80847 z m -35.82238,0 h 35.80852 v -14.32339 h -35.80852 z m 17.25819,14.33504 h 35.80852 v -14.32341 h -35.80852 z m 107.40676,28.66924 h 35.80852 v -14.32344 h -35.80852 z m 54.41235,-14.33505 h 35.80852 v -14.32343 h -35.80852 z m -35.82239,0 h 35.80852 v -14.32343 h -35.80852 z m 17.25817,14.33505 h 35.80854 v -14.32344 h -35.80854 z m -107.45777,0 h 35.80847 v -14.32344 h -35.80847 z m 54.4123,-14.33505 h 35.80853 v -14.32343 h -35.80853 z m -35.82238,0 h 35.80855 v -14.32343 h -35.80855 z m 17.25819,14.33505 h 35.80852 v -14.32344 h -35.80852 z m -107.49339,0 h 35.80852 v -14.32344 h -35.80852 z m 54.41235,-14.33505 h 35.80847 v -14.32343 h -35.80847 z m -35.82238,0 h 35.80852 v -14.32343 h -35.80852 z m 17.25819,14.33505 h 35.80852 v -14.32344 h -35.80852 z m 107.40676,28.65461 h 35.80852 v -14.3234 h -35.80852 z m 54.41235,-14.33503 h 35.80852 v -14.32331 h -35.80852 z m -35.82239,0 h 35.80852 v -14.32331 h -35.80852 z m 17.25817,14.33503 h 35.80854 v -14.3234 h -35.80854 z m -107.45777,0 h 35.80847 v -14.3234 h -35.80847 z m 54.4123,-14.33503 h 35.80853 v -14.32331 h -35.80853 z m -35.82238,0 h 35.80855 v -14.32331 h -35.80855 z m 17.25819,14.33503 h 35.80852 v -14.3234 h -35.80852 z m -107.49339,0 h 35.80852 v -14.3234 h -35.80852 z m 54.41235,-14.33503 h 35.80847 v -14.32331 h -35.80847 z m -35.82238,0 h 35.80852 v -14.32331 h -35.80852 z m 17.25819,14.33503 h 35.80852 v -14.3234 h -35.80852 z m 107.40676,28.66951 h 35.80852 v -14.32329 h -35.80852 z m 54.41235,-14.33513 h 35.80852 v -14.32341 h -35.80852 z m -35.82239,0 h 35.80852 v -14.32341 h -35.80852 z m 17.25817,14.33513 h 35.80854 v -14.32329 h -35.80854 z m -107.45777,0 h 35.80847 v -14.32329 h -35.80847 z m 54.4123,-14.33513 h 35.80853 v -14.32341 h -35.80853 z m -35.82238,0 h 35.80855 v -14.32341 h -35.80855 z m 17.25819,14.33513 h 35.80852 v -14.32329 h -35.80852 z m -107.49339,0 h 35.80852 v -14.32329 h -35.80852 z m 54.41235,-14.33513 h 35.80847 v -14.32341 h -35.80847 z m -35.82238,0 h 35.80852 v -14.32341 h -35.80852 z m 17.25819,14.33513 h 35.80852 v -14.32329 h -35.80852 z m 107.40676,28.65514 h 35.80852 v -14.32339 h -35.80852 z m 54.41235,-14.33522 h 35.80852 v -14.32341 h -35.80852 z m -35.82239,0 h 35.80852 v -14.32341 h -35.80852 z m 17.25817,14.33522 h 35.80854 v -14.32339 h -35.80854 z m -107.45777,0 h 35.80847 v -14.32339 h -35.80847 z m 54.4123,-14.33522 h 35.80853 v -14.32341 h -35.80853 z m -35.82238,0 h 35.80855 v -14.32341 h -35.80855 z m 17.25819,14.33522 h 35.80852 v -14.32339 h -35.80852 z m -107.49339,0 h 35.80852 v -14.32339 h -35.80852 z m 54.41235,-14.33522 h 35.80847 v -14.32341 h -35.80847 z m -35.82238,0 h 35.80852 v -14.32341 h -35.80852 z m 17.25819,14.33522 h 35.80852 v -14.32339 h -35.80852 z"
       inkscape:connector-curvature="0" />
    <text
       xml:space="preserve"
       style="font-style:normal;font-variant:normal;font-weight:bold;font-stretch:normal;font-size:25.39999962px;line-height:1.25;font-family:'Toronto Subway';-inkscape-font-specification:'Toronto Subway Bold';letter-spacing:0px;word-spacing:0px;fill:#000000;fill-opacity:1;stroke:none;stroke-width:0.26458332"
       x="39.389843"
       y="247.03789"
       id="text1462"><tspan
         sodipodi:role="line"
         id="tspan1460"
         x="39.389843"
         y="247.03789"
         style="font-size:88.19444275px;letter-spacing:19.84375px;fill:#182080;fill-opacity:1;stroke-width:0.26458332">TTC</tspan></text>
    <text
       xml:space="preserve"
       style="font-style:normal;font-variant:normal;font-weight:bold;font-stretch:normal;font-size:25.39999962px;line-height:1.25;font-family:'Toronto Subway';-inkscape-font-specification:'Toronto Subway Bold';letter-spacing:23.8125px;word-spacing:0px;fill:#182080;fill-opacity:1;stroke:none;stroke-width:0.26458332"
       x="61.509605"
       y="275.94519"
       id="text1466"><tspan
         sodipodi:role="line"
         id="tspan1464"
         x="61.509605"
         y="275.94519"
         style="letter-spacing:23.8125px;fill:#182080;fill-opacity:1;stroke-width:0.26458332">lines</tspan></text>
  </g>
</svg>
